#N canvas 363 22 444 739 10;
#X text -85 -83 objects;
#X msg -61 -60 obj 300 10 r test;
#X msg -61 -34 msg 300 40 bang;
#X msg -61 18 symbolatom 300 100 symbol;
#X msg -61 43 text 300 130 comment;
#X msg -61 -8 floatatom 300 70;
#X obj -62 348 s pd-subpatch;
#X msg -62 120 connect 0 0 1 0;
#X text -81 87 make connections;
#X text -57 102 (connect obj# outlet# obj# inlet#);
#N canvas 724 129 464 422 subpatch 1;
#X obj 300 10 r test;
#X msg 300 40 bang;
#X floatatom 300 70 0 0 0 0 - - -;
#X symbolatom 300 100 0 0 0 0 - - -;
#X text 300 130 comment;
#X obj 122 10 vsl 15 128 0 127 0 0 empty empty empty 0 -9 0 10 -262144
-1 -1 0 1;
#X connect 0 0 1 0;
#X restore -60 485 pd subpatch;
#X text 29 484 <= click here on run mode to open the subpatch;
#X text -87 -109 list of important messages:;
#X msg -61 194 obj 122 10 vsl 15 128 0 127 0 0 empty empty empty 0
-9 0 10 -262144 -1 -1 0 1;
#X text -79 168 example of a gui element (vertical slider);
#X text -70 411 if you want to create others objects \, just put them
on a pd file \, save it and open it in a text editor to find out the
correct message syntax.;
#X text -81 259 reset the patch;
#X msg -61 280 clear;
#X text -76 344;
#X connect 1 0 6 0;
#X connect 2 0 6 0;
#X connect 3 0 6 0;
#X connect 4 0 6 0;
#X connect 5 0 6 0;
#X connect 7 0 6 0;
#X connect 13 0 6 0;
#X connect 17 0 6 0;